<?xml version="1.0" encoding="UTF-8"?>
<svg xmlns="http://www.w3.org/2000/svg" width="1600" height="900" viewBox="0 0 1600 900" role="img" aria-label="Cumplimiento normativo">
  <defs>
    <linearGradient id="g" x1="0" y1="0" x2="1" y2="1">
      <stop offset="0" stop-color="#000d44"/>
      <stop offset="1" stop-color="#345681"/>
    </linearGradient>
    <linearGradient id="overlay" x1="0" y1="0" x2="0" y2="1">
      <stop offset="0" stop-color="#000d44" stop-opacity="0.25"/>
      <stop offset="1" stop-color="#000d44" stop-opacity="0.78"/>
    </linearGradient>
  </defs>
  <rect width="1600" height="900" fill="url(#g)"/>
  <rect width="1600" height="900" fill="url(#overlay)"/>
  <g opacity="0.22" fill="#fff">
    <path d="M1260 200c0-22 18-40 40-40h110c22 0 40 18 40 40v460c0 22-18 40-40 40h-110c-22 0-40-18-40-40V200z" />
    <path d="M1210 250h50v460h-50c-22 0-40-18-40-40V290c0-22 18-40 40-40z" />
    <path d="M1320 290h260v18h-260zm0 70h260v18h-260zm0 70h260v18h-260zm0 70h260v18h-260z" opacity="0.35"/>
  </g>
  <g fill="#ffffff">
    <text x="110" y="430" font-family="Montserrat, Arial, sans-serif" font-size="34" font-weight="700" opacity="0.85">Cumplimiento</text>
    <text x="110" y="500" font-family="Montserrat, Arial, sans-serif" font-size="64" font-weight="900">Cumplimiento normativo</text>
    <text x="110" y="560" font-family="Open Sans, Arial, sans-serif" font-size="28" font-weight="600" opacity="0.85">Seguridad, trazabilidad y cultura preventiva</text>
  </g>
  <g transform="translate(1180 170)" opacity="0.9">
    <circle cx="120" cy="120" r="120" fill="#ffffff" fill-opacity="0.12"/>
    <path d="M120 70 l60 25 v55c0 45-34 78-60 90-26-12-60-45-60-90V95z" fill="#fff" fill-opacity="0.14"/>
    <path d="M92 135 L112 155 L150 110" stroke="#ffffff" stroke-width="12" stroke-linecap="round" stroke-linejoin="round" fill="none"/>
  </g>
</svg>
