<?xml version="1.0" encoding="UTF-8"?>
<svg xmlns="http://www.w3.org/2000/svg" width="1600" height="900" viewBox="0 0 1600 900" role="img" aria-label="Limpieza corporativa B2B">
  <defs>
    <linearGradient id="g" x1="0" y1="0" x2="1" y2="1">
      <stop offset="0" stop-color="#004aac"/>
      <stop offset="1" stop-color="#003585"/>
    </linearGradient>
    <linearGradient id="overlay" x1="0" y1="0" x2="0" y2="1">
      <stop offset="0" stop-color="#000d44" stop-opacity="0.25"/>
      <stop offset="1" stop-color="#000d44" stop-opacity="0.78"/>
    </linearGradient>
  </defs>
  <rect width="1600" height="900" fill="url(#g)"/>
  <rect width="1600" height="900" fill="url(#overlay)"/>
  <g opacity="0.22" fill="#fff">
    <rect x="1180" y="180" width="320" height="520" rx="24"/>
    <rect x="1220" y="240" width="240" height="18" rx="9"/>
    <rect x="1220" y="310" width="240" height="18" rx="9"/>
    <rect x="1220" y="380" width="200" height="18" rx="9"/>
    <rect x="1220" y="450" width="260" height="18" rx="9"/>
  </g>
  <g fill="#ffffff">
    <text x="110" y="430" font-family="Montserrat, Arial, sans-serif" font-size="34" font-weight="700" opacity="0.85">Facility Management</text>
    <text x="110" y="500" font-family="Montserrat, Arial, sans-serif" font-size="58" font-weight="900">Limpieza corporativa B2B</text>
    <text x="110" y="560" font-family="Open Sans, Arial, sans-serif" font-size="28" font-weight="600" opacity="0.85">Mejores pr·cticas para empresas de alto est·ndar</text>
  </g>
  <g transform="translate(1180 170)" opacity="0.9">
    <circle cx="120" cy="120" r="120" fill="#ffffff" fill-opacity="0.12"/>
    <path d="M70 200 h100 v-90 l-50-40-50 40v90z" fill="#fff" fill-opacity="0.14"/>
    <rect x="95" y="120" width="50" height="70" rx="6" fill="#fff" fill-opacity="0.2"/>
    <path d="M105 150 h30M105 170 h30M105 190 h30" stroke="#ffffff" stroke-width="8" stroke-linecap="round"/>
  </g>
</svg>
