<?xml version="1.0" encoding="UTF-8"?>
<svg xmlns="http://www.w3.org/2000/svg" width="1600" height="900" viewBox="0 0 1600 900" role="img" aria-label="Optimizaciˇn de recursos">
  <defs>
    <linearGradient id="g" x1="0" y1="0" x2="1" y2="1">
      <stop offset="0" stop-color="#004aac"/>
      <stop offset="1" stop-color="#2e7d32"/>
    </linearGradient>
    <linearGradient id="overlay" x1="0" y1="0" x2="0" y2="1">
      <stop offset="0" stop-color="#000d44" stop-opacity="0.35"/>
      <stop offset="1" stop-color="#000d44" stop-opacity="0.75"/>
    </linearGradient>
  </defs>
  <rect width="1600" height="900" fill="url(#g)"/>
  <rect width="1600" height="900" fill="url(#overlay)"/>
  <g fill="none" stroke="#ffffff" stroke-opacity="0.18">
    <path d="M-50 760 C 250 640, 420 910, 720 790 S 1220 640, 1680 760" stroke-width="10"/>
    <path d="M-80 640 C 220 520, 520 820, 820 680 S 1320 520, 1700 640" stroke-width="8"/>
    <path d="M-120 520 C 180 400, 520 700, 860 560 S 1320 420, 1720 520" stroke-width="6"/>
  </g>
  <g fill="#ffffff">
    <text x="110" y="430" font-family="Montserrat, Arial, sans-serif" font-size="34" font-weight="700" opacity="0.85">Gestiˇn operativa</text>
    <text x="110" y="500" font-family="Montserrat, Arial, sans-serif" font-size="64" font-weight="900">Optimizaciˇn de recursos</text>
    <text x="110" y="560" font-family="Open Sans, Arial, sans-serif" font-size="28" font-weight="600" opacity="0.85">Productividad, control y continuidad del servicio</text>
  </g>
  <g transform="translate(1180 170)" opacity="0.9">
    <circle cx="120" cy="120" r="120" fill="#ffffff" fill-opacity="0.12"/>
    <circle cx="120" cy="120" r="86" fill="#ffffff" fill-opacity="0.10"/>
    <path d="M70 130 L105 165 L175 95" stroke="#ffffff" stroke-width="14" stroke-linecap="round" stroke-linejoin="round" fill="none"/>
  </g>
</svg>
