<?xml version="1.0" encoding="UTF-8"?>
<svg xmlns="http://www.w3.org/2000/svg" width="1600" height="900" viewBox="0 0 1600 900" role="img" aria-label="Política del Sistema Integrado de Gestión SIG">
  <defs>
    <linearGradient id="g" x1="0" y1="0" x2="1" y2="1">
      <stop offset="0" stop-color="#004aac"/>
      <stop offset="1" stop-color="#0f3460"/>
    </linearGradient>
    <linearGradient id="overlay" x1="0" y1="0" x2="0" y2="1">
      <stop offset="0" stop-color="#000d44" stop-opacity="0.15"/>
      <stop offset="1" stop-color="#000d44" stop-opacity="0.72"/>
    </linearGradient>
  </defs>
  <rect width="1600" height="900" fill="url(#g)"/>
  <rect width="1600" height="900" fill="url(#overlay)"/>
  <g opacity="0.16" fill="#fff">
    <circle cx="1340" cy="240" r="190"/>
    <circle cx="1200" cy="520" r="130"/>
    <circle cx="1450" cy="580" r="85"/>
  </g>
  <g fill="#ffffff">
    <text x="110" y="360" font-family="Montserrat, Arial, sans-serif" font-size="32" font-weight="700" opacity="0.85">Cumplimiento</text>
    <text x="110" y="440" font-family="Montserrat, Arial, sans-serif" font-size="52" font-weight="900">Política del Sistema Integrado</text>
    <text x="110" y="510" font-family="Montserrat, Arial, sans-serif" font-size="52" font-weight="900">de Gestión (SIG)</text>
    <text x="110" y="590" font-family="Open Sans, Arial, sans-serif" font-size="26" font-weight="600" opacity="0.85">Calidad · Seguridad y Salud · Medio Ambiente</text>
    <text x="110" y="650" font-family="Open Sans, Arial, sans-serif" font-size="22" font-weight="400" opacity="0.65">Documento PO-ALD-001</text>
  </g>
  <g transform="translate(1180 180)" opacity="0.95">
    <rect x="40" y="20" width="180" height="230" rx="14" fill="#fff" fill-opacity="0.14"/>
    <path d="M160 20 l60 60 H172a12 12 0 0 1-12-12V20z" fill="#fff" fill-opacity="0.22"/>
    <rect x="58" y="150" width="144" height="56" rx="8" fill="#E53935"/>
    <text x="130" y="186" text-anchor="middle" font-family="Montserrat, Arial, sans-serif" font-size="28" font-weight="800" fill="#fff">PDF</text>
  </g>
</svg>
