<?xml version="1.0" encoding="UTF-8"?>
<svg xmlns="http://www.w3.org/2000/svg" width="1600" height="900" viewBox="0 0 1600 900" role="img" aria-label="TecnologÝa e innovaciˇn - Smart Cleaned">
  <defs>
    <linearGradient id="g" x1="0" y1="0" x2="1" y2="1">
      <stop offset="0" stop-color="#004aac"/>
      <stop offset="1" stop-color="#000d44"/>
    </linearGradient>
    <linearGradient id="overlay" x1="0" y1="0" x2="0" y2="1">
      <stop offset="0" stop-color="#000d44" stop-opacity="0.25"/>
      <stop offset="1" stop-color="#000d44" stop-opacity="0.82"/>
    </linearGradient>
  </defs>
  <rect width="1600" height="900" fill="url(#g)"/>
  <rect width="1600" height="900" fill="url(#overlay)"/>
  <g fill="none" stroke="#ffffff" stroke-opacity="0.18" stroke-width="8">
    <path d="M240 280 H720" />
    <path d="M240 360 H900" />
    <path d="M240 440 H640" />
    <path d="M240 520 H820" />
  </g>
  <g fill="#ffffff">
    <text x="110" y="410" font-family="Montserrat, Arial, sans-serif" font-size="34" font-weight="700" opacity="0.85">Innovaciˇn</text>
    <text x="110" y="480" font-family="Montserrat, Arial, sans-serif" font-size="64" font-weight="900">Smart Cleaned</text>
    <text x="110" y="540" font-family="Open Sans, Arial, sans-serif" font-size="28" font-weight="600" opacity="0.85">Control de asistencias y visibilidad de recursos</text>
  </g>
  <g transform="translate(1120 160)" opacity="0.95">
    <circle cx="170" cy="170" r="170" fill="#ffffff" fill-opacity="0.10"/>
    <circle cx="170" cy="170" r="118" fill="#ffffff" fill-opacity="0.08"/>
    <path d="M110 205c0-40 30-70 60-70s60 30 60 70" stroke="#fff" stroke-width="12" stroke-linecap="round"/>
    <circle cx="170" cy="150" r="34" fill="#fff" fill-opacity="0.12"/>
    <path d="M110 120h120" stroke="#fff" stroke-width="10" stroke-linecap="round" opacity="0.55"/>
    <path d="M110 245h120" stroke="#fff" stroke-width="10" stroke-linecap="round" opacity="0.55"/>
  </g>
</svg>
