<?xml version="1.0" encoding="UTF-8"?>
<svg id="Layer_1" xmlns="http://www.w3.org/2000/svg" version="1.1" viewBox="0 0 447.18 153.29">
  <!-- Generator: Adobe Illustrator 30.0.0, SVG Export Plug-In . SVG Version: 2.1.1 Build 123)  -->
  <defs>
    <style>
      .st0 {
        fill: #004aac;
      }

      .st1 {
        fill: #82b83e;
      }

      .st2 {
        fill: #345681;
      }

      .st3 {
        fill: #000d44;
      }
    </style>
  </defs>
  <g>
    <path class="st3" d="M167.95,68.39c0-15.44,9.01-24.45,23.27-24.45,12.38,0,19.82,6.58,21.24,18.26l-10.74,2.12c-1.25-6.9-4.31-10.5-10.81-10.5-8.31,0-11.75,6.35-11.75,14.57,0,9.33,3.53,15.05,11.68,15.05,6.89,0,9.72-3.68,11.13-10.66l10.66,1.8c-1.41,11.75-9.17,18.57-21.71,18.57-14.58,0-22.96-9.25-22.96-24.76Z"/>
    <path class="st3" d="M229.3,92.05h-10.66v-50.31h10.66v50.31Z"/>
    <path class="st3" d="M235.17,74.27c0-12.85,6.97-20.37,19.04-20.37,11.44,0,16.85,6.74,16.85,17,0,1.57-.08,3.06-.24,5.02h-25.15c.63,5.96,3.37,8.62,8.46,8.62s6.58-2.35,7.52-5.17l8.93,2.43c-1.65,6.43-5.96,11.28-16.53,11.28-11.2,0-18.88-6.19-18.88-18.81ZM245.75,70.51h15.51c-.16-5.8-2.59-8.62-7.37-8.62s-7.6,2.51-8.15,8.62Z"/>
    <path class="st3" d="M298.88,83.2h-.94c-1.88,5.88-5.8,9.64-12.15,9.64s-10.89-3.21-10.89-10.5c0-6.66,3.92-11.28,13.71-11.28h9.72v-2.59c0-3.84-1.65-6.03-5.72-6.03-3.53,0-5.56,1.72-6.27,5.33l-10.03-2.27c1.25-6.74,6.43-11.52,16.69-11.52,11.28,0,15.91,5.17,15.91,14.5v23.59h-10.03v-8.85ZM298.33,77.79v-1.49h-7.68c-3.45,0-5.64,1.57-5.64,4.15,0,2.35,1.33,4.23,5.41,4.23,4.86,0,7.91-2.9,7.91-6.9Z"/>
    <path class="st3" d="M327.01,92.05h-10.66v-37.14h10.42v9.95h.71c2.19-7.21,6.74-10.97,12.54-10.97,7.13,0,10.74,4.94,10.74,13.01v25.15h-10.66v-22.18c0-3.76-1.72-6.35-5.64-6.35-4.54,0-7.44,3.21-7.44,7.84v20.69Z"/>
    <path class="st3" d="M356.15,74.27c0-12.85,6.97-20.37,19.04-20.37,11.44,0,16.85,6.74,16.85,17,0,1.57-.08,3.06-.24,5.02h-25.15c.63,5.96,3.37,8.62,8.46,8.62s6.58-2.35,7.52-5.17l8.93,2.43c-1.65,6.43-5.96,11.28-16.53,11.28-11.2,0-18.88-6.19-18.88-18.81ZM366.73,70.51h15.51c-.16-5.8-2.59-8.62-7.37-8.62s-7.6,2.51-8.15,8.62Z"/>
    <path class="st3" d="M421.58,82.34h-.63c-1.88,6.5-5.96,10.81-12.15,10.81-7.99,0-12.69-6.82-12.69-19.36s4.7-19.9,12.85-19.9c5.96,0,9.95,3.92,11.91,10.42h.71v-22.57h10.66v50.31h-10.66v-9.72ZM421.58,75.29v-2.9c0-5.41-2.9-8.85-7.6-8.85-5.09,0-7.44,3.29-7.44,10.27s2.27,9.95,7.52,9.95c4.47,0,7.52-3.29,7.52-8.46Z"/>
    <path class="st3" d="M57.73,131.44c5.27-1.43,7.76-4.9,9.62-7.65,4.02-5.97,6.36-9.38,8-11.85.02-.02.14-.19.3-.45-.26-.24-.5-.51-.69-.84-.02-.02-.03-.04-.05-.07l-7.8-14.52c-6.52-12.13-6.52-26.72,0-38.84l7.8-14.51s.03-.05.05-.07c.18-.32.41-.59.66-.82-.14-.25-.24-.42-.28-.48-1.64-2.46-3.98-5.87-8-11.84-1.86-2.75-4.34-6.22-9.61-7.65h-10.12c-2.53,0-4.85,1.37-6.07,3.57h0s-.03.06-.05.09l-21.65,40.26-4.06,7.56c-.65,1.21-.92,2.56-.81,3.88.01.12.02.23.04.34.02.15.04.3.08.45.03.15.07.3.11.45.02.1.05.2.09.3.04.14.09.28.14.41.11.27.23.54.37.79l25.71,47.82c1.21,2.25,3.57,3.66,6.12,3.66h15.12s0,0,0,0h-5.01Z"/>
    <path class="st0" d="M131.58,70.56h-30.94c-2.57,0-4.94-1.41-6.15-3.68,0,0-13.57-24.61-14.15-25.54-1.64-2.46-3.98-5.87-8-11.84-1.86-2.75-4.34-6.22-9.62-7.65h7.16,0s38.52-.01,38.52-.01c2.56,0,4.92,1.4,6.13,3.66l20.58,38.29c1.57,2.91-.35,6.41-3.53,6.77Z"/>
    <path class="st2" d="M135.11,89.5l-20.58,38.29c-1.21,2.25-3.57,3.66-6.13,3.66h-38.52,0s-7.16-.01-7.16-.01c5.27-1.43,7.76-4.9,9.62-7.65,4.02-5.97,6.36-9.38,8-11.85.13-.09,3.26-5.3,3.26-5.3.14-.26.29-.52.43-.78l10.46-19.45c1.21-2.27,3.58-3.68,6.15-3.68h30.9c3.2.33,5.14,3.84,3.57,6.77Z"/>
    <g>
      <path class="st1" d="M300.62,121.98l2.37-2.83c1.66,1.35,3.35,2.21,5.43,2.21,1.66,0,2.63-.65,2.63-1.72v-.05c0-1.01-.62-1.56-3.67-2.31-3.69-.91-6.03-1.98-6.03-5.56v-.05c0-3.3,2.63-5.49,6.37-5.49,2.68,0,4.89.83,6.76,2.31l-2.08,3.02c-1.64-1.12-3.17-1.79-4.73-1.79s-2.34.68-2.34,1.59v.05c0,1.22.78,1.56,3.93,2.39,3.69.99,5.77,2.29,5.77,5.46v.05c0,3.61-2.76,5.64-6.68,5.64-2.78,0-5.54-.94-7.72-2.91Z"/>
      <path class="st1" d="M318.52,106.43h13.73v3.56h-9.75v3.69h8.58v3.56h-8.58v3.82h9.88v3.56h-13.86v-18.2Z"/>
      <path class="st1" d="M335.94,106.43h8.32c2.31,0,4.08.62,5.3,1.85,1.04,1.04,1.56,2.42,1.56,4.16v.05c0,2.94-1.59,4.78-3.9,5.64l4.45,6.5h-4.68l-3.9-5.82h-3.15v5.82h-4v-18.2ZM344,115.27c1.98,0,3.07-1.01,3.07-2.57v-.05c0-1.74-1.17-2.6-3.15-2.6h-3.98v5.23h4.06Z"/>
      <path class="st1" d="M352.66,106.43h4.42l4.76,12.82,4.76-12.82h4.32l-7.36,18.33h-3.54l-7.36-18.33Z"/>
      <path class="st1" d="M373.91,106.43h4v18.2h-4v-18.2Z"/>
      <path class="st1" d="M381.66,115.58v-.05c0-5.17,3.9-9.41,9.49-9.41,3.41,0,5.51,1.14,7.18,2.81l-2.55,2.94c-1.43-1.27-2.81-2.05-4.65-2.05-3.07,0-5.28,2.55-5.28,5.67v.05c0,3.12,2.16,5.72,5.28,5.72,2.08,0,3.35-.81,4.78-2.13l2.55,2.57c-1.87,2-3.93,3.25-7.46,3.25-5.36,0-9.33-4.13-9.33-9.36Z"/>
      <path class="st1" d="M401.66,106.43h13.73v3.56h-9.75v3.69h8.58v3.56h-8.58v3.82h9.88v3.56h-13.86v-18.2Z"/>
      <path class="st1" d="M417.83,121.98l2.37-2.83c1.66,1.35,3.35,2.21,5.44,2.21,1.66,0,2.63-.65,2.63-1.72v-.05c0-1.01-.62-1.56-3.67-2.31-3.69-.91-6.03-1.98-6.03-5.56v-.05c0-3.3,2.63-5.49,6.37-5.49,2.68,0,4.89.83,6.76,2.31l-2.08,3.02c-1.64-1.12-3.17-1.79-4.73-1.79s-2.34.68-2.34,1.59v.05c0,1.22.78,1.56,3.93,2.39,3.69.99,5.77,2.29,5.77,5.46v.05c0,3.61-2.76,5.64-6.68,5.64-2.78,0-5.54-.94-7.72-2.91Z"/>
    </g>
  </g>
  <g>
    <path class="st3" d="M80.12-108.14l-.86,1.62c-.06.12-.12.22-.21.32,0,.02-.02.04-.03.06-.06.09-.12.17-.2.24-.02.03-.03.05-.05.07-.07.08-.14.16-.22.22-.11.12-.23.21-.36.3-.06.09-.11.17-.17.25-1.63,2.45-3.94,5.83-7.82,11.59-1.86,2.75-4.34,6.21-9.62,7.65h-15.12c-2.56,0-4.92-1.41-6.12-3.66l-25.71-47.82c-.14-.26-.26-.53-.37-.79-.05-.13-.1-.27-.14-.41-.04-.1-.07-.2-.09-.3-.04-.15-.08-.3-.11-.45-.04-.15-.06-.3-.08-.45-.02-.11-.03-.22-.04-.34-.11-1.32.16-2.67.81-3.88l4.06-7.56,21.65-40.26s.03-.06.05-.08h0c1.22-2.21,3.55-3.58,6.07-3.58h15.12c5.27,1.43,7.76,4.9,9.62,7.65,4.02,5.97,6.36,9.38,7.99,11.84.43.3.8.7,1.07,1.22l.71,1.32-.08.3c-1.31-2.44-2.08-2.76-2.17-2.79,0,0,0,0,0,0h0c-1.6-.99-3.87-.57-4.9,1.26-.02.02-.03.04-.05.07l-7.8,14.51c-6.52,12.13-6.52,26.72,0,38.84l7.8,14.52s.03.05.05.07c1.02,1.8,3.23,2.24,4.82,1.31,0,0,.97-.13,2.5-2.84Z"/>
    <path class="st3" d="M165.79-148.86c0-15.44,9.01-24.45,23.27-24.45,12.38,0,19.82,6.58,21.24,18.26l-10.74,2.12c-1.25-6.9-4.31-10.5-10.81-10.5-8.31,0-11.75,6.35-11.75,14.57,0,9.33,3.53,15.05,11.68,15.05,6.89,0,9.72-3.68,11.13-10.66l10.66,1.8c-1.41,11.75-9.17,18.57-21.71,18.57-14.58,0-22.96-9.25-22.96-24.76Z"/>
    <path class="st3" d="M227.14-125.2h-10.66v-50.31h10.66v50.31Z"/>
    <path class="st3" d="M233.02-142.98c0-12.85,6.97-20.37,19.04-20.37,11.44,0,16.85,6.74,16.85,17,0,1.57-.08,3.06-.24,5.02h-25.15c.63,5.96,3.37,8.62,8.46,8.62s6.58-2.35,7.52-5.17l8.93,2.43c-1.65,6.43-5.96,11.28-16.53,11.28-11.2,0-18.88-6.19-18.88-18.81ZM243.59-146.75h15.51c-.16-5.8-2.59-8.62-7.37-8.62s-7.6,2.51-8.15,8.62Z"/>
    <path class="st3" d="M296.72-134.05h-.94c-1.88,5.88-5.8,9.64-12.15,9.64s-10.89-3.21-10.89-10.5c0-6.66,3.92-11.28,13.71-11.28h9.72v-2.59c0-3.84-1.65-6.03-5.72-6.03-3.53,0-5.56,1.72-6.27,5.33l-10.03-2.27c1.25-6.74,6.43-11.52,16.69-11.52,11.28,0,15.91,5.17,15.91,14.5v23.59h-10.03v-8.85ZM296.17-139.46v-1.49h-7.68c-3.45,0-5.64,1.57-5.64,4.15,0,2.35,1.33,4.23,5.41,4.23,4.86,0,7.91-2.9,7.91-6.9Z"/>
    <path class="st3" d="M324.85-125.2h-10.66v-37.14h10.42v9.95h.71c2.19-7.21,6.74-10.97,12.54-10.97,7.13,0,10.74,4.94,10.74,13.01v25.15h-10.66v-22.18c0-3.76-1.72-6.35-5.64-6.35-4.54,0-7.44,3.21-7.44,7.84v20.69Z"/>
    <path class="st3" d="M353.99-142.98c0-12.85,6.97-20.37,19.04-20.37,11.44,0,16.85,6.74,16.85,17,0,1.57-.08,3.06-.24,5.02h-25.15c.63,5.96,3.37,8.62,8.46,8.62s6.58-2.35,7.52-5.17l8.93,2.43c-1.65,6.43-5.96,11.28-16.53,11.28-11.2,0-18.88-6.19-18.88-18.81ZM364.57-146.75h15.51c-.16-5.8-2.59-8.62-7.37-8.62s-7.6,2.51-8.15,8.62Z"/>
    <path class="st3" d="M419.42-134.91h-.63c-1.88,6.5-5.96,10.81-12.15,10.81-7.99,0-12.69-6.82-12.69-19.36s4.7-19.9,12.85-19.9c5.96,0,9.95,3.92,11.91,10.42h.71v-22.57h10.66v50.31h-10.66v-9.72ZM419.42-141.97v-2.9c0-5.41-2.9-8.85-7.6-8.85-5.09,0-7.44,3.29-7.44,10.27s2.27,9.95,7.52,9.95c4.47,0,7.52-3.29,7.52-8.46Z"/>
    <path class="st0" d="M129.43-146.69h-30.94c-2.57,0-4.94-1.41-6.15-3.68,0,0-13.57-24.61-14.15-25.54-1.64-2.46-3.98-5.87-8-11.84-1.86-2.75-4.34-6.22-9.62-7.65h7.16,0s38.52-.01,38.52-.01c2.56,0,4.92,1.4,6.13,3.66l20.58,38.29c1.57,2.91-.35,6.41-3.53,6.77Z"/>
    <path class="st2" d="M132.96-127.75l-20.58,38.29c-1.21,2.25-3.57,3.66-6.13,3.66h-38.52,0s-7.16-.01-7.16-.01c5.27-1.43,7.76-4.9,9.62-7.65,4.02-5.97,6.36-9.38,8-11.85.13-.09,3.26-5.3,3.26-5.3.14-.26.29-.52.43-.78l10.46-19.45c1.21-2.27,3.58-3.68,6.15-3.68h30.9c3.2.33,5.14,3.84,3.57,6.77Z"/>
    <g>
      <path class="st1" d="M298.47-95.27l2.37-2.83c1.66,1.35,3.35,2.21,5.43,2.21,1.66,0,2.63-.65,2.63-1.72v-.05c0-1.01-.62-1.56-3.67-2.31-3.69-.91-6.03-1.98-6.03-5.56v-.05c0-3.3,2.63-5.49,6.37-5.49,2.68,0,4.89.83,6.76,2.31l-2.08,3.02c-1.64-1.12-3.17-1.79-4.73-1.79s-2.34.68-2.34,1.59v.05c0,1.22.78,1.56,3.93,2.39,3.69.99,5.77,2.29,5.77,5.46v.05c0,3.61-2.76,5.64-6.68,5.64-2.78,0-5.54-.94-7.72-2.91Z"/>
      <path class="st1" d="M316.36-110.82h13.73v3.56h-9.75v3.69h8.58v3.56h-8.58v3.82h9.88v3.56h-13.86v-18.2Z"/>
      <path class="st1" d="M333.78-110.82h8.32c2.31,0,4.08.62,5.3,1.85,1.04,1.04,1.56,2.42,1.56,4.16v.05c0,2.94-1.59,4.78-3.9,5.64l4.45,6.5h-4.68l-3.9-5.82h-3.15v5.82h-4v-18.2ZM341.84-101.98c1.98,0,3.07-1.01,3.07-2.57v-.05c0-1.74-1.17-2.6-3.15-2.6h-3.98v5.23h4.06Z"/>
      <path class="st1" d="M350.5-110.82h4.42l4.76,12.82,4.76-12.82h4.32l-7.36,18.33h-3.54l-7.36-18.33Z"/>
      <path class="st1" d="M371.75-110.82h4v18.2h-4v-18.2Z"/>
      <path class="st1" d="M379.5-101.67v-.05c0-5.17,3.9-9.41,9.49-9.41,3.41,0,5.51,1.14,7.18,2.81l-2.55,2.94c-1.43-1.27-2.81-2.05-4.65-2.05-3.07,0-5.28,2.55-5.28,5.67v.05c0,3.12,2.16,5.72,5.28,5.72,2.08,0,3.35-.81,4.78-2.13l2.55,2.57c-1.87,2-3.93,3.25-7.46,3.25-5.36,0-9.33-4.13-9.33-9.36Z"/>
      <path class="st1" d="M399.5-110.82h13.73v3.56h-9.75v3.69h8.58v3.56h-8.58v3.82h9.88v3.56h-13.86v-18.2Z"/>
      <path class="st1" d="M415.67-95.27l2.37-2.83c1.66,1.35,3.35,2.21,5.44,2.21,1.66,0,2.63-.65,2.63-1.72v-.05c0-1.01-.62-1.56-3.67-2.31-3.69-.91-6.03-1.98-6.03-5.56v-.05c0-3.3,2.63-5.49,6.37-5.49,2.68,0,4.89.83,6.76,2.31l-2.08,3.02c-1.64-1.12-3.17-1.79-4.73-1.79s-2.34.68-2.34,1.59v.05c0,1.22.78,1.56,3.93,2.39,3.69.99,5.77,2.29,5.77,5.46v.05c0,3.61-2.76,5.64-6.68,5.64-2.78,0-5.54-.94-7.72-2.91Z"/>
    </g>
  </g>
</svg>